<svg width="48" height="48" viewBox="0 0 48 48" fill="none" xmlns="http://www.w3.org/2000/svg">
<path d="M34.7493 16.5581C34.9426 16.5581 35.0994 16.4019 35.0994 16.2085V14.5776H36.7297C36.9231 14.5776 37.0798 14.4214 37.0798 14.228C37.0798 14.0347 36.9231 13.8784 36.7297 13.8784H35.0994V12.2476C35.0994 12.0542 34.9426 11.8979 34.7493 11.8979C34.5559 11.8979 34.3992 12.0542 34.3992 12.2476V13.8784H32.7688C32.5754 13.8784 32.4187 14.0347 32.4187 14.228C32.4187 14.4214 32.5754 14.5776 32.7688 14.5776H34.3992V16.2085C34.3992 16.4019 34.5559 16.5581 34.7493 16.5581Z" fill="#303030"/>
<path d="M22.8411 31.6284C24.9939 31.6284 26.7449 29.8765 26.7449 27.7241C26.7449 25.5718 24.9939 23.8198 22.8411 23.8198C20.6882 23.8198 18.9368 25.5718 18.9368 27.7241C18.9368 29.8765 20.6882 31.6284 22.8411 31.6284ZM22.8411 24.5669C24.5823 24.5669 25.9988 25.9829 25.9988 27.7241C25.9988 29.4653 24.5823 30.8814 22.8411 30.8814C21.0999 30.8814 19.6829 29.4653 19.6829 27.7241C19.6829 25.9829 21.0999 24.5669 22.8411 24.5669Z" fill="#303030"/>
<path d="M27.1071 26.0122C27.3207 26.5424 27.4451 27.1182 27.4451 27.7241C27.4451 30.2632 25.3796 32.3276 22.8411 32.3276C20.302 32.3276 18.2366 30.2632 18.2366 27.7241C18.2366 27.1182 18.361 26.5424 18.5746 26.0122H11.6204H10.9202V35.0835C10.9202 35.645 11.3777 36.102 11.9402 36.102H33.7307C34.2991 36.102 34.7615 35.6401 34.7615 35.0718V26.0122H34.0613H27.1071Z" fill="#303030"/>
<path d="M33.7415 19.3384H27.8743L26.6248 17.1216C26.45 16.8091 26.1189 16.6157 25.7615 16.6157H19.9202C19.5627 16.6157 19.2317 16.8091 19.0574 17.1206L17.8069 19.3384H11.9294C11.3728 19.3384 10.9202 19.7905 10.9202 20.3472V25.313H11.6204H18.9363C19.7488 24.0026 21.1887 23.1206 22.8411 23.1206C24.4931 23.1206 25.9329 24.0026 26.7453 25.313H34.0613H34.7615V20.3579C34.7615 19.7954 34.304 19.3384 33.7415 19.3384Z" fill="#303030"/>
</svg>
